<svg xmlns="http://www.w3.org/2000/svg" xmlns:xlink="http://www.w3.org/1999/xlink" width="1080" zoomAndPan="magnify" viewBox="0 0 810 809.999993" height="1080" preserveAspectRatio="xMidYMid meet" version="1.0"><defs><g/></defs><rect x="-81" width="972" fill="#ffffff" y="-80.999999" height="971.999992" fill-opacity="1"/><rect x="-81" width="972" fill="#000000" y="-80.999999" height="971.999992" fill-opacity="1"/><g fill="#ffffff" fill-opacity="1"><g transform="translate(234.642253, 442.483601)"><g><path d="M 133.8125 -160.90625 C 134.757812 -160.757812 135.472656 -160.226562 135.953125 -159.3125 C 136.203125 -158.832031 136.226562 -158.410156 136.03125 -158.046875 C 135.832031 -157.679688 135.566406 -157.296875 135.234375 -156.890625 C 132.273438 -154.191406 129.257812 -151.429688 126.1875 -148.609375 C 123.226562 -145.796875 120.25 -143.019531 117.25 -140.28125 C 109.53125 -133.039062 101.816406 -125.800781 94.109375 -118.5625 C 78.972656 -104.488281 63.851562 -90.378906 48.75 -76.234375 C 41.039062 -69.140625 33.765625 -61.570312 26.921875 -53.53125 C 24.515625 -50.707031 22.25 -47.722656 20.125 -44.578125 C 18.695312 -42.492188 17.546875 -40.25 16.671875 -37.84375 C 15.140625 -33.820312 16.085938 -30.472656 19.515625 -27.796875 C 21.785156 -26.191406 24.164062 -24.785156 26.65625 -23.578125 C 30.34375 -21.753906 34.125 -20.191406 38 -18.890625 C 41.875 -17.597656 45.769531 -16.398438 49.6875 -15.296875 C 62.882812 -11.421875 76.082031 -7.601562 89.28125 -3.84375 C 90.414062 -3.507812 91.550781 -3.179688 92.6875 -2.859375 C 92.90625 -2.773438 93.175781 -2.695312 93.5 -2.625 C 94.375 -2.375 95.210938 -2.066406 96.015625 -1.703125 C 96.828125 -1.335938 97.5625 -0.789062 98.21875 -0.0625 C 98.625 0.414062 98.742188 0.957031 98.578125 1.5625 C 98.410156 2.164062 98.085938 2.578125 97.609375 2.796875 C 95.929688 3.453125 94.328125 3.414062 92.796875 2.6875 C 90.703125 1.664062 88.519531 0.867188 86.25 0.296875 C 83.988281 -0.265625 81.707031 -0.785156 79.40625 -1.265625 C 77.394531 -1.660156 75.382812 -2.148438 73.375 -2.734375 C 70.226562 -3.546875 67.082031 -4.316406 63.9375 -5.046875 C 55.5 -7.128906 47.128906 -9.453125 38.828125 -12.015625 C 31.921875 -14.097656 25.175781 -16.632812 18.59375 -19.625 C 16.726562 -20.507812 15.554688 -20.769531 15.078125 -20.40625 C 14.609375 -20.039062 14.375 -18.8125 14.375 -16.71875 C 14.300781 -15.519531 14.265625 -14.351562 14.265625 -13.21875 C 14.335938 -12.738281 14.375 -12.265625 14.375 -11.796875 C 14.375 -5.429688 14.375 0.929688 14.375 7.296875 C 14.375 23.859375 14.335938 40.382812 14.265625 56.875 C 14.265625 60.820312 14.097656 64.769531 13.765625 68.71875 C 13.691406 70.539062 13.597656 72.421875 13.484375 74.359375 C 13.484375 75.085938 13.363281 75.753906 13.125 76.359375 C 12.894531 76.960938 12.414062 77.429688 11.6875 77.765625 C 10.257812 78.390625 9.023438 78.414062 7.984375 77.84375 C 6.941406 77.28125 6.328125 76.285156 6.140625 74.859375 C 6.066406 73.578125 5.992188 72.332031 5.921875 71.125 C 5.515625 65.164062 5.273438 59.171875 5.203125 53.140625 C 5.203125 31.097656 5.203125 9.050781 5.203125 -13 C 5.203125 -21.113281 5.203125 -29.191406 5.203125 -37.234375 C 5.203125 -37.234375 5.238281 -37.234375 5.3125 -37.234375 C 5.3125 -45.347656 5.3125 -53.460938 5.3125 -61.578125 C 5.238281 -85.640625 5.238281 -109.734375 5.3125 -133.859375 C 5.3125 -139.273438 5.476562 -144.632812 5.8125 -149.9375 C 5.882812 -152.164062 7.035156 -153.367188 9.265625 -153.546875 C 11.859375 -153.878906 13.320312 -152.785156 13.65625 -150.265625 C 14.0625 -147.046875 14.265625 -143.789062 14.265625 -140.5 C 14.265625 -125.144531 14.265625 -109.789062 14.265625 -94.4375 C 14.335938 -83.175781 14.375 -71.953125 14.375 -60.765625 C 14.375 -58.679688 14.484375 -56.597656 14.703125 -54.515625 C 14.703125 -54.398438 14.78125 -54.304688 14.9375 -54.234375 C 15.101562 -54.160156 15.269531 -54.085938 15.4375 -54.015625 C 15.601562 -53.941406 15.722656 -53.941406 15.796875 -54.015625 C 16.046875 -54.015625 16.253906 -54.097656 16.421875 -54.265625 C 16.585938 -54.429688 16.742188 -54.585938 16.890625 -54.734375 C 22.265625 -61.085938 27.910156 -67.132812 33.828125 -72.875 C 39.753906 -78.625 45.734375 -84.3125 51.765625 -89.9375 C 52.171875 -90.269531 52.570312 -90.632812 52.96875 -91.03125 C 71 -107.851562 89.097656 -124.582031 107.265625 -141.21875 C 111.285156 -144.945312 115.269531 -148.65625 119.21875 -152.34375 C 121.851562 -154.6875 124.503906 -156.972656 127.171875 -159.203125 C 129.109375 -160.734375 131.320312 -161.300781 133.8125 -160.90625 Z M 133.8125 -160.90625 "/></g></g></g><g fill="#ffffff" fill-opacity="1"><g transform="translate(339.385949, 442.483601)"><g><path d="M 62.046875 -28.1875 C 61.046875 -25.113281 59.054688 -21.59375 56.078125 -17.625 C 53.097656 -13.664062 49.375 -11.117188 44.90625 -9.984375 C 40.445312 -8.847656 36.59375 -9 33.34375 -10.4375 C 30.09375 -11.882812 28.300781 -15.753906 27.96875 -22.046875 C 24.269531 -14.878906 20.75 -10.289062 17.40625 -8.28125 C 14.0625 -6.269531 10.582031 -5.503906 6.96875 -5.984375 C 2.875 -6.640625 0.101562 -8.226562 -1.34375 -10.75 C -2.789062 -13.269531 -3.273438 -16.179688 -2.796875 -19.484375 C -2.316406 -22.796875 -1.3125 -25.972656 0.21875 -29.015625 C 1.425781 -31.273438 3.097656 -33.375 5.234375 -35.3125 C 7.378906 -37.25 9.617188 -38.769531 11.953125 -39.875 C 14.835938 -41.332031 17.742188 -42.023438 20.671875 -41.953125 C 23.597656 -41.878906 26.722656 -40.910156 30.046875 -39.046875 C 30.117188 -38.972656 30.15625 -39.046875 30.15625 -39.265625 C 30.15625 -39.597656 30.238281 -40.007812 30.40625 -40.5 C 30.570312 -40.988281 30.859375 -41.378906 31.265625 -41.671875 C 32.359375 -42.484375 33.65625 -42.890625 35.15625 -42.890625 C 36.65625 -42.890625 37.804688 -42.140625 38.609375 -40.640625 C 38.753906 -38.703125 38.550781 -36.234375 38 -33.234375 C 36.789062 -26.648438 36.789062 -21.914062 38 -19.03125 C 39.207031 -16.144531 41.335938 -14.800781 44.390625 -15 C 47.441406 -15.195312 51.398438 -18.210938 56.265625 -24.046875 C 61.128906 -29.878906 63.054688 -31.257812 62.046875 -28.1875 Z M 8.0625 -12.71875 C 9.738281 -11.507812 11.664062 -11.671875 13.84375 -13.203125 C 16.019531 -14.742188 18.113281 -16.921875 20.125 -19.734375 C 22.132812 -22.554688 23.820312 -25.375 25.1875 -28.1875 C 26.5625 -31 27.320312 -33.082031 27.46875 -34.4375 C 23.375 -36.632812 19.863281 -37.007812 16.9375 -35.5625 C 14.019531 -34.113281 11.691406 -31.753906 9.953125 -28.484375 C 8.210938 -25.210938 7.175781 -22.03125 6.84375 -18.9375 C 6.519531 -15.851562 6.925781 -13.78125 8.0625 -12.71875 Z M 8.0625 -12.71875 "/></g></g></g><g fill="#ffffff" fill-opacity="1"><g transform="translate(397.515959, 442.483601)"><g><path d="M 67.171875 -20.234375 C 67.171875 -20.234375 67.171875 -20.269531 67.171875 -20.34375 C 67.503906 -20.675781 68.289062 -21.398438 69.53125 -22.515625 C 70.78125 -23.628906 72.085938 -24.6875 73.453125 -25.6875 C 74.828125 -26.695312 75.816406 -27.226562 76.421875 -27.28125 C 77.023438 -27.332031 76.890625 -26.425781 76.015625 -24.5625 C 75.859375 -24.3125 75.632812 -24.007812 75.34375 -23.65625 C 75.050781 -23.3125 74.796875 -22.976562 74.578125 -22.65625 C 74.472656 -22.582031 74.382812 -22.488281 74.3125 -22.375 C 68.675781 -16.34375 64.269531 -12.164062 61.09375 -9.84375 C 57.914062 -7.519531 54.769531 -6.429688 51.65625 -6.578125 C 48.4375 -6.910156 46.257812 -8.160156 45.125 -10.328125 C 44 -12.503906 43.453125 -15.15625 43.484375 -18.28125 C 43.523438 -21.414062 43.78125 -24.585938 44.25 -27.796875 C 44.769531 -31.128906 44.984375 -33.972656 44.890625 -36.328125 C 44.796875 -38.691406 43.984375 -40.070312 42.453125 -40.46875 C 41.023438 -40.582031 39.5625 -39.40625 38.0625 -36.9375 C 36.5625 -34.46875 35.132812 -31.601562 33.78125 -28.34375 C 32.425781 -25.09375 31.289062 -22.226562 30.375 -19.75 C 29.90625 -18.394531 29.5625 -17.421875 29.34375 -16.828125 C 28.6875 -15.554688 27.753906 -14.71875 26.546875 -14.3125 C 25.335938 -13.90625 24.054688 -13.976562 22.703125 -14.53125 C 21.898438 -15.039062 21.40625 -15.734375 21.21875 -16.609375 C 21 -18.546875 20.925781 -20.5625 21 -22.65625 C 21.070312 -24 21.070312 -25.3125 21 -26.59375 C 21 -26.925781 21 -27.328125 21 -27.796875 C 21 -28.460938 21 -29.113281 21 -29.75 C 21 -30.382812 20.9375 -30.945312 20.8125 -31.4375 C 20.6875 -31.9375 20.421875 -32.1875 20.015625 -32.1875 C 19.390625 -32.257812 18.628906 -31.507812 17.734375 -29.9375 C 16.835938 -28.363281 15.929688 -26.488281 15.015625 -24.3125 C 14.109375 -22.144531 13.289062 -20.179688 12.5625 -18.421875 C 11.90625 -16.890625 11.46875 -15.847656 11.25 -15.296875 C 11.132812 -15.046875 11.003906 -14.789062 10.859375 -14.53125 C 10.128906 -13.101562 9.398438 -11.660156 8.671875 -10.203125 C 8.046875 -8.992188 7 -8.28125 5.53125 -8.0625 C 2.570312 -7.550781 0.96875 -8.757812 0.71875 -11.6875 C 0.5 -19.144531 0.296875 -26.617188 0.109375 -34.109375 C 0.109375 -36.046875 1.3125 -36.726562 3.71875 -36.15625 C 6.132812 -35.59375 7.472656 -34.34375 7.734375 -32.40625 C 7.953125 -29.257812 8.304688 -27.664062 8.796875 -27.625 C 9.296875 -27.59375 10.3125 -28.988281 11.84375 -31.8125 C 12.644531 -33.164062 13.488281 -34.535156 14.375 -35.921875 C 15.394531 -37.742188 16.800781 -39.351562 18.59375 -40.75 C 20.414062 -41.957031 22.175781 -42.3125 23.875 -41.8125 C 25.582031 -41.320312 26.910156 -40.035156 27.859375 -37.953125 C 28.265625 -37.078125 28.664062 -36.597656 29.0625 -36.515625 C 29.46875 -36.441406 29.867188 -36.625 30.265625 -37.0625 C 30.671875 -37.507812 31.078125 -38.039062 31.484375 -38.65625 C 31.804688 -39.320312 32.171875 -39.890625 32.578125 -40.359375 C 34.835938 -42.847656 37.53125 -44.578125 40.65625 -45.546875 C 43.789062 -46.515625 46.625 -46.476562 49.15625 -45.4375 C 51.695312 -44.394531 53.171875 -42.097656 53.578125 -38.546875 C 53.722656 -34.304688 53.429688 -29.976562 52.703125 -25.5625 C 52.410156 -23.4375 52.171875 -21.421875 51.984375 -19.515625 C 51.835938 -15.390625 52.585938 -13.125 54.234375 -12.71875 C 55.878906 -12.320312 57.890625 -12.972656 60.265625 -14.671875 C 62.640625 -16.367188 64.941406 -18.222656 67.171875 -20.234375 Z M 67.171875 -20.234375 "/></g></g></g><g fill="#ffffff" fill-opacity="1"><g transform="translate(469.410728, 442.483601)"><g><path d="M 52.859375 -26.484375 C 53.671875 -26.960938 54.457031 -27.328125 55.21875 -27.578125 C 55.988281 -27.835938 56.492188 -27.820312 56.734375 -27.53125 C 56.972656 -27.238281 56.648438 -26.582031 55.765625 -25.5625 C 53.023438 -22.414062 49.742188 -19.535156 45.921875 -16.921875 C 42.109375 -14.304688 38.191406 -12.101562 34.171875 -10.3125 C 31.023438 -8.882812 27.703125 -7.75 24.203125 -6.90625 C 20.710938 -6.070312 17.257812 -5.890625 13.84375 -6.359375 C 10.425781 -6.835938 7.3125 -8.351562 4.5 -10.90625 C 0.21875 -14.851562 -1.554688 -19.679688 -0.828125 -25.390625 C -0.203125 -29.921875 1.5625 -33.765625 4.46875 -36.921875 C 7.375 -40.085938 11.039062 -42.238281 15.46875 -43.375 C 19.15625 -44.175781 22.847656 -44.269531 26.546875 -43.65625 C 28.222656 -43.394531 29.757812 -42.828125 31.15625 -41.953125 C 32.425781 -40.960938 33.125 -39.8125 33.25 -38.5 C 33.382812 -37.1875 32.882812 -35.925781 31.75 -34.71875 C 29.414062 -32.632812 26.710938 -31.390625 23.640625 -30.984375 C 20.203125 -30.398438 16.742188 -30.035156 13.265625 -29.890625 C 11.585938 -29.890625 10.410156 -29.539062 9.734375 -28.84375 C 9.054688 -28.144531 8.664062 -26.957031 8.5625 -25.28125 C 8.007812 -20.707031 9.46875 -16.976562 12.9375 -14.09375 C 15.09375 -12.375 17.71875 -11.640625 20.8125 -11.890625 C 23.90625 -12.148438 27.1875 -12.984375 30.65625 -14.390625 C 34.125 -15.796875 37.519531 -17.441406 40.84375 -19.328125 C 44.175781 -21.210938 47.175781 -22.992188 49.84375 -24.671875 C 50.976562 -25.410156 51.984375 -26.015625 52.859375 -26.484375 Z M 14.75 -36.25 C 14.75 -36.175781 14.695312 -36.140625 14.59375 -36.140625 C 14.445312 -35.992188 14.253906 -35.816406 14.015625 -35.609375 C 13.773438 -35.410156 13.550781 -35.210938 13.34375 -35.015625 C 13.144531 -34.816406 13.046875 -34.679688 13.046875 -34.609375 C 13.117188 -34.347656 13.773438 -34.28125 15.015625 -34.40625 C 16.265625 -34.539062 17.640625 -34.757812 19.140625 -35.0625 C 20.640625 -35.375 21.890625 -35.796875 22.890625 -36.328125 C 23.898438 -36.859375 24.203125 -37.488281 23.796875 -38.21875 C 23.617188 -38.4375 23.390625 -38.628906 23.109375 -38.796875 C 22.835938 -38.960938 22.535156 -39.082031 22.203125 -39.15625 C 20.742188 -39.15625 19.410156 -38.867188 18.203125 -38.296875 C 16.992188 -37.734375 15.84375 -37.050781 14.75 -36.25 Z M 14.75 -36.25 "/></g></g></g><g fill="#ffffff" fill-opacity="1"><g transform="translate(522.495492, 442.483601)"><g><path d="M 34.984375 -26.265625 C 35.679688 -27.691406 36.15625 -28.347656 36.40625 -28.234375 C 36.664062 -28.128906 36.726562 -27.554688 36.59375 -26.515625 C 36.46875 -25.472656 36.242188 -24.296875 35.921875 -22.984375 C 35.441406 -20.972656 34.617188 -18.640625 33.453125 -15.984375 C 32.285156 -13.335938 30.988281 -10.9375 29.5625 -8.78125 C 27.4375 -5.78125 24.8125 -3.519531 21.6875 -2 C 18.5625 -0.476562 15.726562 -0.101562 13.1875 -0.875 C 10.644531 -1.644531 9.175781 -4.039062 8.78125 -8.0625 C 8.707031 -11.425781 9 -15.117188 9.65625 -19.140625 C 9.875 -20.816406 10.109375 -22.460938 10.359375 -24.078125 C 10.359375 -24.660156 10.210938 -25.109375 9.921875 -25.421875 C 9.628906 -25.734375 9.25 -25.851562 8.78125 -25.78125 C 8.445312 -25.78125 8.078125 -25.78125 7.671875 -25.78125 C 5.660156 -25.445312 3.613281 -25.484375 1.53125 -25.890625 C -0.945312 -26.617188 -2.390625 -27.847656 -2.796875 -29.578125 C -3.203125 -31.316406 -3.164062 -33.59375 -2.6875 -36.40625 C -2.425781 -38.425781 -1.675781 -39.9375 -0.4375 -40.9375 C 0.800781 -41.945312 2.265625 -42.359375 3.953125 -42.171875 C 6.285156 -41.953125 7.414062 -41.054688 7.34375 -39.484375 C 7.269531 -37.910156 6.832031 -36.226562 6.03125 -34.4375 C 5.300781 -32.9375 4.914062 -31.679688 4.875 -30.671875 C 4.84375 -29.671875 5.703125 -29.316406 7.453125 -29.609375 C 7.859375 -29.722656 8.300781 -29.851562 8.78125 -30 C 9.4375 -30.25 10.179688 -30.472656 11.015625 -30.671875 C 11.859375 -30.878906 12.957031 -30.925781 14.3125 -30.8125 C 15.914062 -30.738281 16.984375 -30 17.515625 -28.59375 C 18.046875 -27.1875 18.273438 -25.421875 18.203125 -23.296875 C 18.128906 -21.179688 17.929688 -19.023438 17.609375 -16.828125 C 17.203125 -14.085938 17 -11.738281 17 -9.78125 C 17 -7.832031 17.566406 -6.691406 18.703125 -6.359375 C 20.203125 -5.960938 22.441406 -7.328125 25.421875 -10.453125 C 28.398438 -13.578125 31.585938 -18.847656 34.984375 -26.265625 Z M 34.984375 -26.265625 "/></g></g></g><g fill="#ffffff" fill-opacity="1"><g transform="translate(556.057347, 442.483601)"><g><path d="M 42.125 -30 C 42.664062 -30.539062 42.953125 -29.867188 42.984375 -27.984375 C 43.023438 -26.109375 41.316406 -23.476562 37.859375 -20.09375 C 34.410156 -16.71875 30.835938 -15.117188 27.140625 -15.296875 C 26.335938 -15.367188 25.648438 -15.304688 25.078125 -15.109375 C 24.515625 -14.910156 24.035156 -14.441406 23.640625 -13.703125 C 23.234375 -13.046875 22.753906 -12.445312 22.203125 -11.90625 C 22.203125 -11.90625 22.164062 -11.867188 22.09375 -11.796875 C 19.832031 -9.378906 17.175781 -7.785156 14.125 -7.015625 C 11.070312 -6.253906 8.171875 -6.492188 5.421875 -7.734375 C 2.679688 -8.972656 0.707031 -11.332031 -0.5 -14.8125 C -1.375 -17.945312 -1.445312 -21.070312 -0.71875 -24.1875 C -0.09375 -26.925781 0.910156 -29.503906 2.296875 -31.921875 C 3.984375 -35.140625 6.171875 -37.414062 8.859375 -38.75 C 11.546875 -40.082031 14.585938 -40.820312 17.984375 -40.96875 C 23.035156 -41.21875 26.21875 -38.84375 27.53125 -33.84375 C 28.332031 -30.945312 28.535156 -28.019531 28.140625 -25.0625 C 28.023438 -24.40625 27.894531 -23.710938 27.75 -22.984375 C 27.601562 -22.503906 27.472656 -22.023438 27.359375 -21.546875 C 27.210938 -19.941406 27.910156 -19.210938 29.453125 -19.359375 C 33.691406 -20.085938 37.914062 -23.632812 42.125 -30 Z M 12.28125 -11.296875 C 14.875 -12.503906 16.6875 -14.550781 17.71875 -17.4375 C 13.40625 -20.175781 10.515625 -24.125 9.046875 -29.28125 C 7.691406 -26.875 6.867188 -24.0625 6.578125 -20.84375 C 6.285156 -17.625 6.601562 -14.960938 7.53125 -12.859375 C 8.46875 -10.753906 10.050781 -10.234375 12.28125 -11.296875 Z M 19.6875 -23.140625 C 20.382812 -24.160156 20.796875 -25.421875 20.921875 -26.921875 C 21.046875 -28.421875 20.972656 -29.910156 20.703125 -31.390625 C 20.429688 -32.867188 20.046875 -34.03125 19.546875 -34.875 C 19.054688 -35.71875 18.535156 -35.972656 17.984375 -35.640625 C 16.992188 -34.765625 16.441406 -33.503906 16.328125 -31.859375 C 16.222656 -30.210938 16.472656 -28.566406 17.078125 -26.921875 C 17.679688 -25.273438 18.550781 -24.015625 19.6875 -23.140625 Z M 19.6875 -23.140625 "/></g></g></g><g fill="#ffffff" fill-opacity="1"><g transform="translate(596.912884, 442.483601)"><g><path d="M 45.34375 -21.109375 C 48.164062 -25.566406 49.84375 -28.398438 50.375 -29.609375 C 50.90625 -30.816406 51.320312 -30.757812 51.625 -29.4375 C 51.9375 -28.125 51.03125 -25.15625 48.90625 -20.53125 C 46.789062 -15.90625 44.160156 -12.34375 41.015625 -9.84375 C 37.867188 -7.34375 34.9375 -6.421875 32.21875 -7.078125 C 29.5 -7.734375 27.550781 -9.625 26.375 -12.75 C 25.207031 -15.875 24.863281 -19.8125 25.34375 -24.5625 C 25.34375 -24.632812 25.378906 -24.835938 25.453125 -25.171875 C 25.523438 -25.972656 25.660156 -27.160156 25.859375 -28.734375 C 26.054688 -30.304688 26.203125 -31.929688 26.296875 -33.609375 C 26.390625 -35.296875 26.332031 -36.6875 26.125 -37.78125 C 25.925781 -38.882812 25.425781 -39.269531 24.625 -38.9375 C 22.6875 -37.875 20.789062 -35.796875 18.9375 -32.703125 C 17.09375 -29.617188 15.421875 -26.382812 13.921875 -23 C 12.429688 -19.625 11.375 -16.894531 10.75 -14.8125 C 10.488281 -14.144531 10.25 -13.445312 10.03125 -12.71875 C 9.707031 -11.769531 9.34375 -10.820312 8.9375 -9.875 C 7.875 -7.132812 6.03125 -6.070312 3.40625 -6.6875 C 1.9375 -7.019531 1.078125 -7.914062 0.828125 -9.375 C 0.753906 -10.507812 0.71875 -11.585938 0.71875 -12.609375 C 0.71875 -13.265625 0.679688 -13.867188 0.609375 -14.421875 C 0.460938 -22.535156 0.257812 -30.707031 0 -38.9375 C 0.0703125 -39.882812 0.488281 -40.539062 1.25 -40.90625 C 2.019531 -41.269531 2.9375 -41.453125 4 -41.453125 C 4.800781 -41.453125 5.554688 -41.234375 6.265625 -40.796875 C 6.984375 -40.359375 7.4375 -39.445312 7.625 -38.0625 C 7.695312 -37.582031 7.734375 -37.109375 7.734375 -36.640625 C 7.804688 -36.378906 7.84375 -36.140625 7.84375 -35.921875 C 7.988281 -34.785156 8.0625 -33.816406 8.0625 -33.015625 C 8.0625 -31.804688 8.144531 -30.984375 8.3125 -30.546875 C 8.476562 -30.109375 8.820312 -30.125 9.34375 -30.59375 C 9.875 -31.070312 10.742188 -32.207031 11.953125 -34 C 14.035156 -37.21875 16.613281 -39.941406 19.6875 -42.171875 C 22.5 -44.179688 25.585938 -45.019531 28.953125 -44.6875 C 31.835938 -44.394531 33.773438 -42.878906 34.765625 -40.140625 C 35.171875 -38.753906 35.375 -37.359375 35.375 -35.953125 C 35.375 -34.546875 35.28125 -33.128906 35.09375 -31.703125 C 35.019531 -30.234375 34.910156 -28.734375 34.765625 -27.203125 C 34.660156 -26.722656 34.570312 -26.25 34.5 -25.78125 C 34.019531 -20.550781 34.179688 -17.046875 34.984375 -15.265625 C 35.785156 -13.492188 37.007812 -12.910156 38.65625 -13.515625 C 40.300781 -14.117188 42.53125 -16.648438 45.34375 -21.109375 Z M 45.34375 -21.109375 "/></g></g></g><g fill="#ffffff" fill-opacity="1"><g transform="translate(335.586083, 491.083556)"><g><path d="M 9.0625 0.21875 C 7.988281 0.21875 6.976562 0.015625 6.03125 -0.390625 C 5.09375 -0.796875 4.269531 -1.347656 3.5625 -2.046875 C 2.851562 -2.753906 2.296875 -3.578125 1.890625 -4.515625 C 1.492188 -5.460938 1.296875 -6.476562 1.296875 -7.5625 C 1.296875 -8.632812 1.492188 -9.640625 1.890625 -10.578125 C 2.296875 -11.523438 2.851562 -12.351562 3.5625 -13.0625 C 4.269531 -13.769531 5.09375 -14.320312 6.03125 -14.71875 C 6.976562 -15.125 7.988281 -15.328125 9.0625 -15.328125 C 10.101562 -15.328125 11.003906 -15.160156 11.765625 -14.828125 C 12.523438 -14.503906 13.164062 -14.144531 13.6875 -13.75 C 14.28125 -13.289062 14.789062 -12.773438 15.21875 -12.203125 L 14.140625 -11.234375 C 13.796875 -11.722656 13.378906 -12.15625 12.890625 -12.53125 C 12.472656 -12.851562 11.945312 -13.144531 11.3125 -13.40625 C 10.675781 -13.675781 9.925781 -13.8125 9.0625 -13.8125 C 8.207031 -13.8125 7.40625 -13.65625 6.65625 -13.34375 C 5.90625 -13.03125 5.25 -12.59375 4.6875 -12.03125 C 4.132812 -11.46875 3.703125 -10.800781 3.390625 -10.03125 C 3.078125 -9.269531 2.921875 -8.445312 2.921875 -7.5625 C 2.921875 -6.664062 3.078125 -5.835938 3.390625 -5.078125 C 3.703125 -4.316406 4.132812 -3.65625 4.6875 -3.09375 C 5.25 -2.53125 5.90625 -2.085938 6.65625 -1.765625 C 7.40625 -1.453125 8.207031 -1.296875 9.0625 -1.296875 C 9.882812 -1.296875 10.59375 -1.398438 11.1875 -1.609375 C 11.78125 -1.816406 12.269531 -2.050781 12.65625 -2.3125 C 13.113281 -2.613281 13.5 -2.957031 13.8125 -3.34375 L 13.8125 -6.265625 L 10.359375 -6.265625 L 10.359375 -7.78125 L 15.4375 -7.78125 L 15.4375 -2.921875 C 14.976562 -2.328125 14.429688 -1.800781 13.796875 -1.34375 C 13.253906 -0.945312 12.585938 -0.585938 11.796875 -0.265625 C 11.015625 0.0546875 10.101562 0.21875 9.0625 0.21875 Z M 9.0625 0.21875 "/></g></g></g><g fill="#ffffff" fill-opacity="1"><g transform="translate(366.575388, 491.083556)"><g><path d="M 8.203125 0.21875 C 7.335938 0.21875 6.53125 0.0625 5.78125 -0.25 C 5.039062 -0.570312 4.390625 -1.007812 3.828125 -1.5625 C 3.273438 -2.113281 2.835938 -2.765625 2.515625 -3.515625 C 2.203125 -4.265625 2.046875 -5.070312 2.046875 -5.9375 L 2.046875 -15.109375 L 3.671875 -15.109375 L 3.671875 -5.9375 C 3.671875 -5.257812 3.785156 -4.632812 4.015625 -4.0625 C 4.242188 -3.5 4.5625 -3.007812 4.96875 -2.59375 C 5.375 -2.1875 5.851562 -1.867188 6.40625 -1.640625 C 6.957031 -1.410156 7.554688 -1.296875 8.203125 -1.296875 C 8.847656 -1.296875 9.445312 -1.410156 10 -1.640625 C 10.5625 -1.867188 11.039062 -2.1875 11.4375 -2.59375 C 11.84375 -3.007812 12.160156 -3.5 12.390625 -4.0625 C 12.617188 -4.632812 12.734375 -5.257812 12.734375 -5.9375 L 12.734375 -15.109375 L 14.359375 -15.109375 L 14.359375 -5.9375 C 14.359375 -5.070312 14.195312 -4.265625 13.875 -3.515625 C 13.5625 -2.765625 13.128906 -2.113281 12.578125 -1.5625 C 12.023438 -1.007812 11.375 -0.570312 10.625 -0.25 C 9.875 0.0625 9.066406 0.21875 8.203125 0.21875 Z M 8.203125 0.21875 "/></g></g></g><g fill="#ffffff" fill-opacity="1"><g transform="translate(396.808975, 491.083556)"><g><path d="M 6.6875 -15.109375 L 8.203125 -15.109375 L 14.46875 0 L 12.734375 0 L 11.015625 -4.203125 L 3.890625 -4.203125 L 2.15625 0 L 0.4375 0 Z M 10.359375 -5.71875 L 7.453125 -12.84375 L 4.53125 -5.71875 Z M 10.359375 -5.71875 "/></g></g></g><g fill="#ffffff" fill-opacity="1"><g transform="translate(425.531155, 491.083556)"><g><path d="M 3.890625 0.21875 C 3.285156 0.21875 2.757812 0.128906 2.3125 -0.046875 C 1.863281 -0.234375 1.484375 -0.429688 1.171875 -0.640625 C 0.796875 -0.898438 0.476562 -1.191406 0.21875 -1.515625 L 1.296875 -2.59375 C 1.472656 -2.34375 1.6875 -2.125 1.9375 -1.9375 C 2.15625 -1.78125 2.425781 -1.632812 2.75 -1.5 C 3.070312 -1.363281 3.453125 -1.296875 3.890625 -1.296875 C 4.804688 -1.296875 5.535156 -1.570312 6.078125 -2.125 C 6.628906 -2.675781 6.90625 -3.441406 6.90625 -4.421875 L 6.90625 -15.109375 L 8.53125 -15.109375 L 8.53125 -4.421875 C 8.53125 -3.742188 8.414062 -3.117188 8.1875 -2.546875 C 7.957031 -1.984375 7.632812 -1.492188 7.21875 -1.078125 C 6.8125 -0.671875 6.320312 -0.351562 5.75 -0.125 C 5.1875 0.101562 4.566406 0.21875 3.890625 0.21875 Z M 3.890625 0.21875 "/></g></g></g><g fill="#ffffff" fill-opacity="1"><g transform="translate(450.043005, 491.083556)"><g><path d="M 6.6875 -15.109375 L 8.203125 -15.109375 L 14.46875 0 L 12.734375 0 L 11.015625 -4.203125 L 3.890625 -4.203125 L 2.15625 0 L 0.4375 0 Z M 10.359375 -5.71875 L 7.453125 -12.84375 L 4.53125 -5.71875 Z M 10.359375 -5.71875 "/></g></g></g><g fill="#ffffff" fill-opacity="1"><g transform="translate(478.765178, 491.083556)"><g><path d="M 2.265625 -15.109375 L 8.3125 -15.109375 C 8.988281 -15.109375 9.609375 -14.992188 10.171875 -14.765625 C 10.742188 -14.535156 11.234375 -14.21875 11.640625 -13.8125 C 12.054688 -13.414062 12.378906 -12.9375 12.609375 -12.375 C 12.835938 -11.820312 12.953125 -11.222656 12.953125 -10.578125 C 12.953125 -9.710938 12.785156 -9.003906 12.453125 -8.453125 C 12.128906 -7.898438 11.769531 -7.457031 11.375 -7.125 C 10.914062 -6.75 10.398438 -6.460938 9.828125 -6.265625 L 13.390625 0 L 11.546875 0 L 8.203125 -6.046875 L 3.890625 -6.046875 L 3.890625 0 L 2.265625 0 Z M 8.3125 -7.5625 C 9.238281 -7.5625 9.972656 -7.832031 10.515625 -8.375 C 11.066406 -8.925781 11.34375 -9.660156 11.34375 -10.578125 C 11.34375 -11.503906 11.066406 -12.238281 10.515625 -12.78125 C 9.972656 -13.332031 9.238281 -13.609375 8.3125 -13.609375 L 3.890625 -13.609375 L 3.890625 -7.5625 Z M 8.3125 -7.5625 "/></g></g></g><g fill="#ffffff" fill-opacity="1"><g transform="translate(507.163481, 491.083556)"><g><path d="M 2.265625 -15.109375 L 7.015625 -15.109375 C 8.128906 -15.109375 9.160156 -14.90625 10.109375 -14.5 C 11.066406 -14.101562 11.898438 -13.554688 12.609375 -12.859375 C 13.328125 -12.171875 13.890625 -11.367188 14.296875 -10.453125 C 14.703125 -9.546875 14.90625 -8.582031 14.90625 -7.5625 C 14.90625 -6.539062 14.703125 -5.570312 14.296875 -4.65625 C 13.890625 -3.738281 13.328125 -2.929688 12.609375 -2.234375 C 11.898438 -1.546875 11.066406 -1 10.109375 -0.59375 C 9.160156 -0.195312 8.128906 0 7.015625 0 L 2.265625 0 Z M 7.015625 -1.515625 C 7.910156 -1.515625 8.738281 -1.671875 9.5 -1.984375 C 10.257812 -2.304688 10.921875 -2.738281 11.484375 -3.28125 C 12.046875 -3.832031 12.484375 -4.472656 12.796875 -5.203125 C 13.117188 -5.941406 13.28125 -6.726562 13.28125 -7.5625 C 13.28125 -8.394531 13.117188 -9.175781 12.796875 -9.90625 C 12.484375 -10.644531 12.046875 -11.285156 11.484375 -11.828125 C 10.921875 -12.378906 10.257812 -12.8125 9.5 -13.125 C 8.738281 -13.445312 7.910156 -13.609375 7.015625 -13.609375 L 3.890625 -13.609375 L 3.890625 -1.515625 Z M 7.015625 -1.515625 "/></g></g></g><g fill="#ffffff" fill-opacity="1"><g transform="translate(537.181165, 491.083556)"><g><path d="M 9.0625 0.21875 C 7.988281 0.21875 6.976562 0.015625 6.03125 -0.390625 C 5.09375 -0.796875 4.269531 -1.347656 3.5625 -2.046875 C 2.851562 -2.753906 2.296875 -3.578125 1.890625 -4.515625 C 1.492188 -5.460938 1.296875 -6.476562 1.296875 -7.5625 C 1.296875 -8.632812 1.492188 -9.640625 1.890625 -10.578125 C 2.296875 -11.523438 2.851562 -12.351562 3.5625 -13.0625 C 4.269531 -13.769531 5.09375 -14.320312 6.03125 -14.71875 C 6.976562 -15.125 7.988281 -15.328125 9.0625 -15.328125 C 10.144531 -15.328125 11.15625 -15.125 12.09375 -14.71875 C 13.039062 -14.320312 13.867188 -13.769531 14.578125 -13.0625 C 15.285156 -12.351562 15.835938 -11.523438 16.234375 -10.578125 C 16.640625 -9.640625 16.84375 -8.632812 16.84375 -7.5625 C 16.84375 -6.476562 16.640625 -5.460938 16.234375 -4.515625 C 15.835938 -3.578125 15.285156 -2.753906 14.578125 -2.046875 C 13.867188 -1.347656 13.039062 -0.796875 12.09375 -0.390625 C 11.15625 0.015625 10.144531 0.21875 9.0625 0.21875 Z M 9.0625 -1.296875 C 9.925781 -1.296875 10.734375 -1.453125 11.484375 -1.765625 C 12.234375 -2.085938 12.882812 -2.53125 13.4375 -3.09375 C 14 -3.65625 14.4375 -4.316406 14.75 -5.078125 C 15.0625 -5.835938 15.21875 -6.664062 15.21875 -7.5625 C 15.21875 -8.445312 15.0625 -9.269531 14.75 -10.03125 C 14.4375 -10.800781 14 -11.46875 13.4375 -12.03125 C 12.882812 -12.59375 12.234375 -13.03125 11.484375 -13.34375 C 10.734375 -13.65625 9.925781 -13.8125 9.0625 -13.8125 C 8.207031 -13.8125 7.40625 -13.65625 6.65625 -13.34375 C 5.90625 -13.03125 5.25 -12.59375 4.6875 -12.03125 C 4.132812 -11.46875 3.703125 -10.800781 3.390625 -10.03125 C 3.078125 -9.269531 2.921875 -8.445312 2.921875 -7.5625 C 2.921875 -6.664062 3.078125 -5.835938 3.390625 -5.078125 C 3.703125 -4.316406 4.132812 -3.65625 4.6875 -3.09375 C 5.25 -2.53125 5.90625 -2.085938 6.65625 -1.765625 C 7.40625 -1.453125 8.207031 -1.296875 9.0625 -1.296875 Z M 9.0625 -1.296875 "/></g></g></g></svg>